<svg width="24" height="24" viewBox="0 0 24 24" fill="none" xmlns="http://www.w3.org/2000/svg">
<g clip-path="url(#clip0_68_3558)">
<path d="M16.3249 3.052L16.325 3.05205L23.9115 9.58398C23.9549 9.62102 23.9897 9.66646 24.0137 9.71744C24.0376 9.76843 24.05 9.82374 24.05 9.87977C24.05 9.93579 24.0376 9.9911 24.0137 10.0421L23.9684 10.0208L24.0136 10.0421C23.9897 10.093 23.9549 10.1384 23.9116 10.1755L16.3249 3.052ZM16.3249 3.052C16.265 3.00059 16.191 2.967 16.1119 2.95496C16.0328 2.94292 15.9517 2.95289 15.8783 2.98378C15.8049 3.01467 15.7421 3.06528 15.6978 3.12983C15.6535 3.19442 15.6297 3.2701 15.6297 3.34767V3.3477V6.97316H13.887C12.9699 6.97316 12.1547 7.05164 11.4036 7.21138C7.21108 8.01326 4.84991 10.8432 3.53703 13.4797C2.22536 16.1138 1.95707 18.5599 1.95183 18.6149M16.3249 3.052L23.9115 10.1756L16.3246 16.6943L16.3245 16.6944C16.2646 16.7456 16.1906 16.7791 16.1116 16.7911C16.0326 16.8031 15.9515 16.7931 15.8782 16.7622C15.8049 16.7313 15.7421 16.6808 15.6979 16.6163C15.6536 16.5518 15.6298 16.4762 15.6297 16.3987V16.3986V12.7857H14.36C10.826 12.7857 7.92428 14.2933 5.89884 15.8109C3.87344 17.3285 2.72771 18.8536 2.70699 18.8817L2.70692 18.8818C2.65378 18.9536 2.57748 19.0062 2.49023 19.0321C2.40301 19.058 2.30927 19.0557 2.22347 19.0258C2.13764 18.9958 2.06414 18.9395 2.0148 18.8652C1.96544 18.7909 1.94316 18.7029 1.95183 18.6149M1.95183 18.6149C1.95183 18.6148 1.95184 18.6148 1.95184 18.6148L2.0016 18.6197L1.95182 18.615C1.95182 18.615 1.95183 18.6149 1.95183 18.6149ZM23.01 9.87904L16.463 15.5053V12.3882C16.463 12.2818 16.4184 12.1803 16.34 12.1059C16.2617 12.0316 16.156 11.9903 16.0463 11.9903H14.36C8.81329 11.9903 4.83193 15.3644 3.05649 17.227C3.70035 14.5588 5.71874 9.11025 11.5758 7.99027L11.5758 7.99028L11.5768 7.99006C12.2746 7.84134 13.03 7.76923 13.8874 7.76923H16.0463C16.156 7.76923 16.2617 7.72791 16.34 7.65361C16.4184 7.57923 16.463 7.47776 16.463 7.37137V4.24253L23.01 9.87904Z" fill="white" stroke="white" stroke-width="0.1"/>
</g>
<defs>
<clipPath id="clip0_68_3558">
<rect width="24" height="24" fill="white"/>
</clipPath>
</defs>
</svg>
