<svg style="width:0; height:0; visibility: hidden;" xmlns="http://www.w3.org/2000/svg">
	<symbol id="svg-search" viewBox="0 0 24 24">
		<g>
			<circle cx="11" cy="11" r="7" stroke="currentColor" stroke-width="2" />
				<path d="M20 20L17 17" stroke="currentColor" stroke-width="2" stroke-linecap="round" />
		</g>
	</symbol>
	<symbol id="svg-pin" viewBox="0 0 16 20">
		<g>
			
			<path fill-rule="evenodd" clip-rule="evenodd"
				d="M8.39827 18.955C10.0148 18.1255 16 14.6628 16 8.86412C16 4.44584 12.4183 0.864119 8 0.864119C3.58172 0.864119 0 4.44584 0 8.86412C0 14.6628 5.98521 18.1255 7.60173 18.955C7.85516 19.0851 8.14484 19.0851 8.39827 18.955ZM8 12.2927C9.89355 12.2927 11.4286 10.7577 11.4286 8.86412C11.4286 6.97057 9.89355 5.43555 8 5.43555C6.10645 5.43555 4.57143 6.97057 4.57143 8.86412C4.57143 10.7577 6.10645 12.2927 8 12.2927Z"
				fill="currentColor" />
			
		</g>
	</symbol>
	<symbol>
		<g>

		</g>
	</symbol>
	<symbol>
		<g>

		</g>
	</symbol>
	<symbol>
		<g>

		</g>
	</symbol>
</svg>