<svg style="width:0; height:0; visibility: hidden;" xmlns="http://www.w3.org/2000/svg">
	<!-- search -->
	<symbol id="svg-search" viewBox="0 0 24 24">
		<g>
			<circle cx="11" cy="11" r="7" stroke="currentColor" stroke-width="2" />
			<path d="M20 20L17 17" stroke="currentColor" stroke-width="2" stroke-linecap="round" />
		</g>
	</symbol>
	<!-- location -->
	<symbol id="svg-pin" viewBox="0 0 16 20">
		<g>

			<path fill-rule="evenodd" clip-rule="evenodd"
				d="M8.39827 18.955C10.0148 18.1255 16 14.6628 16 8.86412C16 4.44584 12.4183 0.864119 8 0.864119C3.58172 0.864119 0 4.44584 0 8.86412C0 14.6628 5.98521 18.1255 7.60173 18.955C7.85516 19.0851 8.14484 19.0851 8.39827 18.955ZM8 12.2927C9.89355 12.2927 11.4286 10.7577 11.4286 8.86412C11.4286 6.97057 9.89355 5.43555 8 5.43555C6.10645 5.43555 4.57143 6.97057 4.57143 8.86412C4.57143 10.7577 6.10645 12.2927 8 12.2927Z"
				fill="currentColor" />
			
		</g>
	</symbol>
	<!-- telegram -->
	<symbol id="svg-tg" viewBox="0 0 15 13">
		<g>

			<path
				d="M15 0.451669L12.7459 12.2192C12.7459 12.2192 12.4306 13.0351 11.5642 12.6438L6.36343 8.51443L6.33931 8.50226C7.04182 7.84905 12.4893 2.777 12.7274 2.54709C13.0959 2.19102 12.8671 1.97905 12.4392 2.24802L4.39259 7.53973L1.28823 6.45807C1.28823 6.45807 0.799693 6.27812 0.752695 5.88683C0.705078 5.4949 1.30431 5.28292 1.30431 5.28292L13.9599 0.141711C13.9599 0.141711 15 -0.331553 15 0.451669Z"
				fill="currentColor" />
			
		</g>
	</symbol>
	<!-- VK -->
	<symbol id="svg-vk" viewBox="0 0 18 12">
		<g>
			
				<path
				d="M9.73689 11.25C4.09947 11.25 0.883979 7.30856 0.75 0.75H3.57386C3.66661 5.56381 5.74844 7.60285 7.39741 8.02327V0.75H10.0564V4.90165C11.6847 4.72297 13.3955 2.83108 13.9727 0.75H16.6316C16.4142 1.82931 15.9806 2.85124 15.3582 3.75188C14.7358 4.65251 13.9378 5.41248 13.0142 5.98423C14.0452 6.50667 14.9557 7.24612 15.6859 8.15381C16.416 9.06149 16.9491 10.1168 17.25 11.25H14.3231C14.053 10.2657 13.504 9.38461 12.745 8.71712C11.986 8.04963 11.0507 7.62546 10.0564 7.49775V11.25H9.73689Z"
				fill="currentColor" />
			
		</g>
	</symbol>
	<!-- OK -->
	<symbol id="svg-ok" viewBox="0 0 12 18">
		<g>
			
				<path
					d="M10.6782 11.0946C11.0718 10.7011 11.128 10.1389 10.7907 9.57666C10.5096 9.1269 10.0036 8.90201 9.44138 9.01446C9.2165 9.07068 8.99161 9.18312 8.76672 9.35178C7.02388 10.5324 4.66261 10.4762 2.91977 9.29556C2.80733 9.23934 2.69488 9.18312 2.58244 9.1269C1.96401 8.84579 1.34559 8.95824 1.00827 9.52045C0.614722 10.0827 0.670935 10.7011 1.17692 11.2071C1.28936 11.3195 1.40181 11.3757 1.45803 11.4882L1.51425 11.5444C2.30134 12.1628 3.2571 12.5564 4.49395 12.725L3.76308 13.4559C3.14465 14.0743 2.47001 14.749 1.85158 15.3674C1.68292 15.5361 1.45803 15.8172 1.45803 16.2107C1.45803 16.7167 1.73913 17.2227 2.24512 17.4476C2.41378 17.56 2.58244 17.56 2.75111 17.56C3.03221 17.56 3.36953 17.4476 3.59442 17.1665C4.43773 16.3232 5.11238 15.6485 5.78703 14.9739C5.84325 14.9176 5.84325 14.9176 5.84325 14.9176C5.84325 14.9176 5.89947 14.9176 5.89947 14.9739C6.34924 15.4798 6.85522 15.9296 7.30499 16.4356C7.52987 16.6605 7.75475 16.8854 7.97964 17.1102C8.26074 17.3914 8.48562 17.5038 8.82295 17.5038C9.32894 17.56 9.89114 17.2227 10.116 16.7167C10.3409 16.2669 10.2285 15.7047 9.83492 15.3674C9.27272 14.8052 8.71051 14.1868 8.09208 13.6246L7.13633 12.6688C7.64231 12.6126 8.20452 12.5001 8.71051 12.2753C9.55382 11.9942 10.1722 11.6006 10.6782 11.0946Z"
					fill="currentColor" />
				<path
					d="M5.84325 9.52044C8.26074 9.52044 10.2285 7.60893 10.2285 5.19144C10.2285 4.0108 9.7787 2.88639 8.93539 2.04308C8.09208 1.19977 7.02389 0.75 5.89947 0.75C3.48198 0.75 1.57047 2.71772 1.51425 5.079C1.51425 6.25963 1.96402 7.32783 2.80733 8.17114C3.59442 9.07067 4.66261 9.52044 5.84325 9.52044ZM4.60639 3.89837C4.94372 3.56104 5.39348 3.39237 5.84325 3.39237C6.85522 3.39237 7.58609 4.17947 7.58609 5.13522C7.58609 6.14719 6.799 6.87806 5.84325 6.87806C4.83127 6.87806 4.10041 6.09097 4.10041 5.13522C4.10041 4.68545 4.26907 4.23569 4.60639 3.89837Z"
					fill="currentColor" />
				<path
					d="M10.6782 11.0946C11.0718 10.7011 11.128 10.1389 10.7907 9.57666C10.5096 9.1269 10.0036 8.90201 9.44138 9.01446C9.2165 9.07068 8.99161 9.18312 8.76672 9.35178C7.02388 10.5324 4.66261 10.4762 2.91977 9.29556C2.80733 9.23934 2.69488 9.18312 2.58244 9.1269C1.96401 8.84579 1.34559 8.95824 1.00827 9.52045C0.614722 10.0827 0.670935 10.7011 1.17692 11.2071C1.28936 11.3195 1.40181 11.3757 1.45803 11.4882L1.51425 11.5444C2.30134 12.1628 3.2571 12.5564 4.49395 12.725L3.76308 13.4559C3.14465 14.0743 2.47001 14.749 1.85158 15.3674C1.68292 15.5361 1.45803 15.8172 1.45803 16.2107C1.45803 16.7167 1.73913 17.2227 2.24512 17.4476C2.41378 17.56 2.58244 17.56 2.75111 17.56C3.03221 17.56 3.36953 17.4476 3.59442 17.1665C4.43773 16.3232 5.11238 15.6485 5.78703 14.9739C5.84325 14.9176 5.84325 14.9176 5.84325 14.9176C5.84325 14.9176 5.89947 14.9176 5.89947 14.9739C6.34924 15.4798 6.85522 15.9296 7.30499 16.4356C7.52987 16.6605 7.75475 16.8854 7.97964 17.1102C8.26074 17.3914 8.48562 17.5038 8.82295 17.5038C9.32894 17.56 9.89114 17.2227 10.116 16.7167C10.3409 16.2669 10.2285 15.7047 9.83492 15.3674C9.27272 14.8052 8.71051 14.1868 8.09208 13.6246L7.13633 12.6688C7.64231 12.6126 8.20452 12.5001 8.71051 12.2753C9.55382 11.9942 10.1722 11.6006 10.6782 11.0946Z"
					fill="currentColor" />
			
		</g>
	</symbol>
	<!-- whatsapp-->
	<symbol id="svg-wa" viewBox="0 0 17 18">
		<g>
				<path
					d="M12.6904 1.15944C9.83181 0.613522 6.86322 0.613522 4.00458 1.15944C2.74018 1.43239 1.14594 2.96095 0.871073 4.16196C0.376309 6.50939 0.376309 8.91141 0.871073 11.2588C1.20092 12.4598 2.79516 13.9884 4.00458 14.2614C4.05955 14.2614 4.11453 14.316 4.11453 14.3705V17.8098C4.11453 17.9736 4.33442 18.0828 4.44437 17.919L6.09359 16.2267C6.09359 16.2267 7.41296 14.8619 7.63285 14.6435C7.63285 14.6435 7.68783 14.5889 7.7428 14.5889C9.39202 14.6435 11.0962 14.4797 12.7454 14.2068C14.0098 13.9338 15.6041 12.4053 15.8789 11.2042C16.3737 8.85682 16.3737 6.4548 15.8789 4.10737C15.5491 2.96095 13.9548 1.43239 12.6904 1.15944ZM12.7454 11.4226C12.4705 11.9685 12.1407 12.4053 11.591 12.6782C11.426 12.7328 11.2611 12.7874 11.0962 12.842C10.8763 12.7874 10.7114 12.7328 10.5465 12.6782C8.7873 11.9685 7.13809 10.9859 5.81872 9.56651C5.10406 8.74764 4.49934 7.81958 4.00458 6.83694C3.78468 6.34562 3.56479 5.90888 3.39987 5.41756C3.23495 4.98083 3.50981 4.5441 3.78468 4.21655C4.05955 3.889 4.3894 3.67064 4.77421 3.50686C5.04908 3.34309 5.32395 3.45227 5.54385 3.67064C5.98364 4.21655 6.42343 4.76247 6.75327 5.36297C6.97317 5.74511 6.91819 6.18184 6.53338 6.4548C6.42343 6.50939 6.36845 6.56398 6.25851 6.67316C6.20353 6.72776 6.09358 6.78235 6.03861 6.89153C5.92866 7.0553 5.92866 7.21908 5.98364 7.38285C6.42343 8.63845 7.24803 9.6211 8.51243 10.167C8.73233 10.2762 8.89725 10.3308 9.17212 10.3308C9.55694 10.2762 9.72186 9.83946 9.99673 9.6211C10.2716 9.40273 10.6014 9.40273 10.9313 9.56651C11.2062 9.73028 11.481 9.94864 11.8109 10.167C12.0857 10.3854 12.3606 10.5492 12.6355 10.7675C12.8004 10.8767 12.8554 11.1497 12.7454 11.4226ZM10.4365 7.32826C10.3266 7.32826 10.3815 7.32826 10.4365 7.32826C10.2166 7.32826 10.1616 7.21908 10.1067 7.0553C10.1067 6.94612 10.1067 6.78235 10.0517 6.67316C9.99673 6.4548 9.88678 6.23643 9.66689 6.07266C9.55694 6.01807 9.44699 5.96348 9.33704 5.90888C9.17212 5.85429 9.06217 5.85429 8.89725 5.85429C8.73233 5.7997 8.67736 5.69052 8.67736 5.52674C8.67736 5.41756 8.84228 5.30838 8.95222 5.30838C9.83181 5.36297 10.4915 5.85429 10.6014 6.89153C10.6014 6.94612 10.6014 7.0553 10.6014 7.10989C10.6014 7.21908 10.5465 7.32826 10.4365 7.32826ZM9.88678 4.92624C9.61191 4.81706 9.33704 4.70787 9.0072 4.65328C8.89725 4.65328 8.73233 4.59869 8.62238 4.59869C8.45746 4.59869 8.34751 4.48951 8.40249 4.32573C8.40249 4.16196 8.51243 4.05278 8.67736 4.10737C9.22709 4.16196 9.72186 4.27114 10.2166 4.48951C11.2062 4.98083 11.7559 5.7997 11.9208 6.89153C11.9208 6.94612 11.9208 7.00071 11.9208 7.0553C11.9208 7.16449 11.9208 7.27367 11.9208 7.43744C11.9208 7.49203 11.9208 7.54663 11.9208 7.60122C11.8658 7.81958 11.481 7.87417 11.426 7.60122C11.426 7.54663 11.3711 7.43744 11.3711 7.38285C11.3711 6.89153 11.2611 6.40021 11.0412 5.96348C10.7114 5.47215 10.3266 5.14461 9.88678 4.92624ZM12.8554 8.20172C12.6904 8.20172 12.5805 8.03795 12.5805 7.87417C12.5805 7.54663 12.5255 7.21908 12.4705 6.89153C12.2507 5.1446 10.8213 3.72523 9.11715 3.45227C8.84228 3.39768 8.56741 3.39768 8.34751 3.34309C8.18259 3.34309 7.96269 3.34309 7.90772 3.12472C7.85275 2.96095 8.01767 2.79718 8.18259 2.79718C8.23756 2.79718 8.29254 2.79718 8.29254 2.79718C8.40249 2.79718 10.5465 2.85177 8.29254 2.79718C10.6014 2.85177 12.5255 4.38033 12.9103 6.67316C12.9653 7.0553 13.0203 7.43744 13.0203 7.87417C13.1302 8.03795 13.0203 8.20172 12.8554 8.20172Z"
					fill="currentColor" />
			
		</g>
	</symbol>
	<!-- eye -->
	<symbol id="svg-eye" viewBox="0 0 24 24">
		<g>
			
				<path
					d="M12 5C6.55576 5 3.53109 9.23425 2.45554 11.1164C2.23488 11.5025 2.12456 11.6956 2.1367 11.9836C2.14885 12.2716 2.27857 12.4598 2.53799 12.8362C3.8182 14.6935 7.29389 19 12 19C16.7061 19 20.1818 14.6935 21.462 12.8362C21.7214 12.4598 21.8511 12.2716 21.8633 11.9836C21.8754 11.6956 21.7651 11.5025 21.5445 11.1164C20.4689 9.23425 17.4442 5 12 5Z"
					stroke="white" />
				<circle cx="12" cy="12" r="3" stroke="currentColor" />
			
		</g>
	</symbol>
	<!-- repost -->
	<symbol id="svg-repost" viewBox="0 0 24 24">
		<g>		
			<g clip-path="url(#clip0_122_2925)">
				<path
					d="M16.3249 3.052L16.325 3.05205L23.9115 9.58398C23.9549 9.62102 23.9897 9.66646 24.0137 9.71744C24.0376 9.76843 24.05 9.82374 24.05 9.87977C24.05 9.93579 24.0376 9.9911 24.0137 10.0421L23.9684 10.0208L24.0136 10.0421C23.9897 10.093 23.9549 10.1384 23.9116 10.1755L16.3249 3.052ZM16.3249 3.052C16.265 3.00059 16.191 2.967 16.1119 2.95496C16.0328 2.94292 15.9517 2.95289 15.8783 2.98378C15.8049 3.01467 15.7421 3.06528 15.6978 3.12983C15.6535 3.19442 15.6297 3.2701 15.6297 3.34767V3.3477V6.97316H13.887C12.9699 6.97316 12.1547 7.05164 11.4036 7.21138C7.21108 8.01326 4.84991 10.8432 3.53703 13.4797C2.22536 16.1138 1.95707 18.5599 1.95183 18.6149M16.3249 3.052L23.9115 10.1756L16.3246 16.6943L16.3245 16.6944C16.2646 16.7456 16.1906 16.7791 16.1116 16.7911C16.0326 16.8031 15.9515 16.7931 15.8782 16.7622C15.8049 16.7313 15.7421 16.6808 15.6979 16.6163C15.6536 16.5518 15.6298 16.4762 15.6297 16.3987V16.3986V12.7857H14.36C10.826 12.7857 7.92428 14.2933 5.89884 15.8109C3.87344 17.3285 2.72771 18.8536 2.70699 18.8817L2.70692 18.8818C2.65378 18.9536 2.57748 19.0062 2.49023 19.0321C2.40301 19.058 2.30927 19.0557 2.22347 19.0258C2.13764 18.9958 2.06414 18.9395 2.0148 18.8652C1.96544 18.7909 1.94316 18.7029 1.95183 18.6149M1.95183 18.6149C1.95183 18.6148 1.95184 18.6148 1.95184 18.6148L2.0016 18.6197L1.95182 18.615C1.95182 18.615 1.95183 18.6149 1.95183 18.6149ZM23.01 9.87904L16.463 15.5053V12.3882C16.463 12.2818 16.4184 12.1803 16.34 12.1059C16.2617 12.0316 16.156 11.9903 16.0463 11.9903H14.36C8.81329 11.9903 4.83193 15.3644 3.05649 17.227C3.70035 14.5588 5.71874 9.11025 11.5758 7.99027L11.5758 7.99028L11.5768 7.99006C12.2746 7.84134 13.03 7.76923 13.8874 7.76923H16.0463C16.156 7.76923 16.2617 7.72791 16.34 7.65361C16.4184 7.57923 16.463 7.47776 16.463 7.37137V4.24253L23.01 9.87904Z"
					fill="white" stroke="white" stroke-width="0.1" />
			</g>
			<defs>
				<clipPath id="clip0_122_2925">
					<rect width="24" height="24" fill="white" />
				</clipPath>
			</defs>
		</g>
	</symbol>
</svg>