<svg width="23" height="18" viewBox="0 0 23 18" fill="none" xmlns="http://www.w3.org/2000/svg">
<path d="M15.3249 1.052L15.325 1.05205L22.9115 7.58398C22.9549 7.62102 22.9897 7.66646 23.0137 7.71744C23.0376 7.76843 23.05 7.82374 23.05 7.87977C23.05 7.93579 23.0376 7.9911 23.0137 8.04209L22.9684 8.02085L23.0136 8.04209C22.9897 8.09303 22.9549 8.13843 22.9116 8.17545L15.3249 1.052ZM15.3249 1.052C15.265 1.00059 15.191 0.967002 15.1119 0.954962C15.0328 0.942923 14.9517 0.952892 14.8783 0.983777C14.8049 1.01467 14.7421 1.06528 14.6978 1.12983C14.6535 1.19442 14.6297 1.2701 14.6297 1.34767V1.3477V4.97316H12.887C11.9699 4.97316 11.1547 5.05164 10.4036 5.21138C6.21108 6.01326 3.84991 8.84322 2.53703 11.4797C1.22536 14.1138 0.957069 16.5599 0.951831 16.6149M15.3249 1.052L22.9115 8.17555L15.3246 14.6943L15.3245 14.6944C15.2646 14.7456 15.1906 14.7791 15.1116 14.7911C15.0326 14.8031 14.9515 14.7931 14.8782 14.7622C14.8049 14.7313 14.7421 14.6808 14.6979 14.6163C14.6536 14.5518 14.6298 14.4762 14.6297 14.3987V14.3986V10.7857H13.36C9.82598 10.7857 6.92428 12.2933 4.89884 13.8109C2.87344 15.3285 1.72771 16.8536 1.70699 16.8817L1.70692 16.8818C1.65378 16.9536 1.57748 17.0062 1.49023 17.0321C1.40301 17.058 1.30927 17.0557 1.22347 17.0258C1.13764 16.9958 1.06414 16.9395 1.0148 16.8652C0.965437 16.7909 0.943164 16.7029 0.951831 16.6149M0.951831 16.6149C0.951835 16.6148 0.951838 16.6148 0.951842 16.6148L1.0016 16.6197L0.951821 16.615C0.951824 16.615 0.951828 16.6149 0.951831 16.6149ZM22.01 7.87904L15.463 13.5053V10.3882C15.463 10.2818 15.4184 10.1803 15.34 10.1059C15.2617 10.0316 15.156 9.99031 15.0463 9.99031H13.36C7.81329 9.99031 3.83193 13.3644 2.05649 15.227C2.70035 12.5588 4.71874 7.11025 10.5758 5.99027L10.5758 5.99028L10.5768 5.99006C11.2746 5.84134 12.03 5.76923 12.8874 5.76923H15.0463C15.156 5.76923 15.2617 5.72791 15.34 5.65361C15.4184 5.57923 15.463 5.47776 15.463 5.37137V2.24253L22.01 7.87904Z" fill="white" stroke="white" stroke-width="0.1"/>
</svg>
